<svg xmlns="http://www.w3.org/2000/svg" fill-rule="evenodd" stroke-linejoin="round" stroke-miterlimit="2" clip-rule="evenodd" viewBox="0 0 28 28" id="Wireless"><g transform="translate(-84 -168)" fill="#0073e6" class="color000000 svgShape"><path d="M179.872,140C179.872,138.826 180.826,137.872 182,137.872C182.481,137.872 182.872,137.481 182.872,137C182.872,136.519 182.481,136.128 182,136.128C179.863,136.128 178.128,137.863 178.128,140C178.128,140.481 178.519,140.872 179,140.872C179.481,140.872 179.872,140.481 179.872,140Z" transform="rotate(135 149.296 148.375) scale(1.14674)" fill="#0073e6" class="color000000 svgShape"></path><path d="M179.872,140C179.872,138.826 180.826,137.872 182,137.872C182.481,137.872 182.872,137.481 182.872,137C182.872,136.519 182.481,136.128 182,136.128C179.863,136.128 178.128,137.863 178.128,140C178.128,140.481 178.519,140.872 179,140.872C179.481,140.872 179.872,140.481 179.872,140Z" transform="rotate(-45 178.57 305.806) scale(1.14674)" fill="#0073e6" class="color000000 svgShape"></path><path d="M179.436,140C179.436,138.585 180.585,137.436 182,137.436C182.241,137.436 182.436,137.241 182.436,137C182.436,136.759 182.241,136.564 182,136.564C180.104,136.564 178.564,138.104 178.564,140C178.564,140.241 178.759,140.436 179,140.436C179.241,140.436 179.436,140.241 179.436,140Z" transform="rotate(135 286.9 185.423) scale(2.29349)" fill="#0073e6" class="color000000 svgShape"></path><path d="M179.436,140C179.436,138.585 180.585,137.436 182,137.436C182.241,137.436 182.436,137.241 182.436,137C182.436,136.759 182.241,136.564 182,136.564C180.104,136.564 178.564,138.104 178.564,140C178.564,140.241 178.759,140.436 179,140.436C179.241,140.436 179.436,140.241 179.436,140Z" transform="rotate(-45 89.13 638.012) scale(2.29349)" fill="#0073e6" class="color000000 svgShape"></path><path d="M179.291,140C179.291,138.505 180.505,137.291 182,137.291C182.16,137.291 182.291,137.16 182.291,137C182.291,136.84 182.16,136.709 182,136.709C180.184,136.709 178.709,138.184 178.709,140C178.709,140.16 178.84,140.291 179,140.291C179.16,140.291 179.291,140.16 179.291,140Z" transform="rotate(135 424.503 222.47) scale(3.44023)" fill="#0073e6" class="color000000 svgShape"></path><path d="M179.291,140C179.291,138.505 180.505,137.291 182,137.291C182.16,137.291 182.291,137.16 182.291,137C182.291,136.84 182.16,136.709 182,136.709C180.184,136.709 178.709,138.184 178.709,140C178.709,140.16 178.84,140.291 179,140.291C179.16,140.291 179.291,140.16 179.291,140Z" transform="rotate(-45 -.311 970.214) scale(3.44023)" fill="#0073e6" class="color000000 svgShape"></path><path d="M96.922,181.78L96.922,189.576C96.922,190.128 97.371,190.576 97.922,190.576C98.474,190.576 98.922,190.128 98.922,189.576L98.922,181.78C98.922,181.228 98.474,180.78 97.922,180.78C97.371,180.78 96.922,181.228 96.922,181.78Z" fill="#0073e6" class="color000000 svgShape"></path></g></svg>