<svg xmlns="http://www.w3.org/2000/svg" viewBox="0 0 48 48" id="library"><g fill="#ffffff" class="color000000 svgShape"><path d="M11,42H5a3,3,0,0,1-3-3V9A3,3,0,0,1,5,6h6a3,3,0,0,1,3,3V39A3,3,0,0,1,11,42ZM5,8A1,1,0,0,0,4,9V39a1,1,0,0,0,1,1h6a1,1,0,0,0,1-1V9a1,1,0,0,0-1-1Z" fill="#ffffff" class="color000000 svgShape"></path><path d="M10 14H6a1 1 0 010-2h4a1 1 0 010 2zM10 36H6a1 1 0 010-2h4a1 1 0 010 2zM24 42H18a3 3 0 01-3-3V9a3 3 0 013-3h6a3 3 0 013 3V39A3 3 0 0124 42zM18 8a1 1 0 00-1 1V39a1 1 0 001 1h6a1 1 0 001-1V9a1 1 0 00-1-1z" fill="#ffffff" class="color000000 svgShape"></path><path d="M23 14H19a1 1 0 010-2h4a1 1 0 010 2zM23 36H19a1 1 0 010-2h4a1 1 0 010 2zM38.2 42a3 3 0 01-2.891-2.225L27.542 10.8a3 3 0 012.121-3.674l5.795-1.553a3.009 3.009 0 013.675 2.121L46.9 36.67a3 3 0 01-2.121 3.674L38.98 41.9A3.027 3.027 0 0138.2 42zM36.234 7.469a1 1 0 00-.258.034L30.181 9.056a1 1 0 00-.608.466.985.985 0 00-.1.758l7.764 28.978a1 1 0 001.225.707l5.8-1.552h0a1 1 0 00.707-1.226L37.2 8.21A1 1 0 0036.234 7.469z" fill="#ffffff" class="color000000 svgShape"></path><path d="M32.439 14.627a1 1 0 01-.257-1.966l3.864-1.036a1 1 0 11.517 1.932L32.7 14.592A.974.974 0 0132.439 14.627zM38.134 35.877a1 1 0 01-.258-1.966l3.863-1.035a1 1 0 11.518 1.932l-3.863 1.035A1.015 1.015 0 0138.134 35.877z" fill="#ffffff" class="color000000 svgShape"></path></g></svg>